<?xml version="1.0" standalone="no"?>
<!DOCTYPE svg PUBLIC "-//W3C//DTD SVG 20010904//EN"
 "http://www.w3.org/TR/2001/REC-SVG-20010904/DTD/svg10.dtd">
<svg version="1.0" xmlns="http://www.w3.org/2000/svg"
 width="16.000000pt" height="16.000000pt" viewBox="0 0 16.000000 16.000000"
 preserveAspectRatio="xMidYMid meet">

<g transform="translate(0.000000,16.000000) scale(0.100000,-0.100000)"
fill="#000000" stroke="none">
<path d="M30 135 c-11 -13 -4 -24 43 -70 59 -58 98 -75 76 -32 -7 12 -18 26
-26 30 -7 5 -11 12 -8 17 3 5 1 11 -5 15 -6 4 -8 11 -5 16 4 5 -5 9 -19 9 -16
0 -26 6 -26 15 0 19 -14 19 -30 0z"/>
</g>
</svg>
