<?xml version="1.0" standalone="no"?>
<!DOCTYPE svg PUBLIC "-//W3C//DTD SVG 20010904//EN"
 "http://www.w3.org/TR/2001/REC-SVG-20010904/DTD/svg10.dtd">
<svg version="1.0" xmlns="http://www.w3.org/2000/svg"
 width="167.000000pt" height="128.000000pt" viewBox="0 0 167.000000 128.000000"
 preserveAspectRatio="xMidYMid meet">

<g transform="translate(0.000000,128.000000) scale(0.100000,-0.100000)"
fill="#000000" stroke="none">
<path d="M0 640 l0 -640 835 0 835 0 0 640 0 640 -835 0 -835 0 0 -640z m1055
424 c-14 -15 -25 -32 -25 -37 0 -6 -3 -8 -6 -4 -7 7 34 67 46 67 5 0 -2 -12
-15 -26z m111 -15 c4 -8 1 -8 -14 0 -12 6 -24 16 -28 22 -4 8 -1 8 14 0 12 -6
24 -16 28 -22z m64 -70 c0 -6 -11 3 -25 19 -14 17 -25 34 -25 38 1 12 50 -45
50 -57z m-217 14 c-4 -10 -15 -29 -25 -43 -10 -14 -22 -39 -27 -57 -8 -27 -5
-37 20 -70 15 -21 29 -44 29 -50 0 -24 -39 -13 -62 17 -24 33 -47 26 -29 -8
25 -47 -2 -74 -31 -30 -20 30 -38 15 -31 -27 4 -28 2 -35 -10 -35 -9 0 -21 9
-27 19 -12 24 -53 17 -46 -8 3 -9 1 -23 -4 -31 -9 -13 -13 -12 -28 8 -24 31
-52 20 -52 -19 0 -34 -12 -37 -31 -8 -18 26 -49 16 -49 -17 0 -25 -24 -34 -33
-11 -3 6 -6 1 -7 -13 -1 -14 -4 -19 -7 -13 -3 9 -22 12 -61 8 l-57 -4 53 9
c34 7 60 18 71 31 17 22 45 34 161 71 36 11 72 27 81 34 8 8 19 14 23 14 16 0
86 66 86 82 0 9 4 20 10 23 5 3 19 25 30 48 30 60 50 97 55 97 3 0 1 -8 -2
-17z m204 -24 c57 -40 117 -60 179 -60 l52 0 15 -57 c22 -80 37 -169 36 -211
-1 -20 -3 -29 -6 -19 -2 9 -15 19 -29 22 -14 4 -60 40 -103 80 -81 75 -164
142 -238 190 -36 24 -44 26 -64 15 -13 -6 -31 -21 -41 -33 -9 -12 -17 -18 -18
-14 0 14 74 94 103 110 37 21 57 17 114 -23z m-137 -59 c0 -5 -4 -10 -10 -10
-5 0 -10 5 -10 10 0 6 5 10 10 10 6 0 10 -4 10 -10z m-40 -40 c0 -5 -5 -10
-11 -10 -5 0 -7 5 -4 10 3 6 8 10 11 10 2 0 4 -4 4 -10z m28 -77 c44 -44 88
-98 101 -125 27 -57 37 -140 23 -190 l-10 -37 41 -3 c85 -6 -285 -23 -488 -22
-234 0 -352 17 -442 60 l-52 25 13 36 c17 49 39 63 64 39 12 -10 49 -21 92
-27 81 -12 103 -19 140 -49 47 -38 76 -5 45 50 -19 33 -18 40 3 40 23 0 433
138 449 152 24 19 13 46 -33 87 -26 23 -42 41 -36 41 6 0 46 -35 90 -77z
m-655 -200 c-18 -2 -48 -2 -65 0 -18 2 -4 4 32 4 36 0 50 -2 33 -4z m1090
-112 c3 -25 2 -39 -2 -33 -6 10 -15 10 -35 2 -15 -5 -60 -9 -99 -8 l-72 1 85
6 c47 4 91 10 98 14 6 5 12 22 12 39 0 43 6 32 13 -21z m-1237 -79 c11 -8 37
-23 59 -33 22 -10 34 -19 27 -19 -23 0 -90 39 -106 62 -9 12 -15 36 -15 53 1
27 2 26 9 -9 4 -22 16 -46 26 -54z m131 -58 c-3 -3 -12 -4 -19 -1 -8 3 -5 6 6
6 11 1 17 -2 13 -5z m46 -11 c-7 -2 -19 -2 -25 0 -7 3 -2 5 12 5 14 0 19 -2
13 -5z m1050 -4 c-12 -12 -164 -29 -157 -17 3 4 29 8 57 9 29 0 61 4 72 9 28
12 41 12 28 -1z m-985 -6 c-10 -2 -26 -2 -35 0 -10 3 -2 5 17 5 19 0 27 -2 18
-5z m85 -10 c-7 -2 -21 -2 -30 0 -10 3 -4 5 12 5 17 0 24 -2 18 -5z m350 -5
c-2 -5 -64 -8 -136 -7 -73 1 -122 4 -109 7 32 10 251 9 245 0z m57 2 c0 -5
-10 -10 -22 -9 -22 0 -22 1 -3 9 11 5 21 9 23 9 1 1 2 -3 2 -9z m-337 -7 c-7
-2 -19 -2 -25 0 -7 3 -2 5 12 5 14 0 19 -2 13 -5z m380 0 c-7 -2 -19 -2 -25 0
-7 3 -2 5 12 5 14 0 19 -2 13 -5z m50 0 c-7 -2 -19 -2 -25 0 -7 3 -2 5 12 5
14 0 19 -2 13 -5z m44 1 c-3 -3 -12 -4 -19 -1 -8 3 -5 6 6 6 11 1 17 -2 13 -5z
m136 -1 c-24 -2 -62 -2 -85 0 -24 2 -5 4 42 4 47 0 66 -2 43 -4z"/>
</g>
</svg>
